<svg width="16" height="15" viewBox="0 0 16 15" fill="none" xmlns="http://www.w3.org/2000/svg">
<path d="M12.7967 4.51066C12.2631 2.90586 9.06186 3.97597 8.52832 5.04584L10.6625 12.0001C11.196 10.3953 13.2235 5.79451 12.7967 4.51066Z" fill="url(#paint0_radial)"/>
<path d="M11.7765 12.1939C12.5394 10.2205 12.2607 9.62496 11.0135 10.2205C9.76641 10.816 10.0078 12.1589 8.7248 14.1672C7.44179 16.1756 11.0135 14.1672 11.7765 12.1939Z" fill="black"/>
<path d="M5.23908 0C7.94406 0.000380894 11.601 10.4348 11.0723 10.9565C10.5435 11.4783 10.0138 12 10.0138 12C10.0138 12 3.11943 7.8261 2.58741 7.30428C2.05539 6.78247 0.998676 5.21749 2.05885 3.6522C3.11914 2.08674 2.58741 -0.000373174 5.23908 0Z" fill="url(#paint1_linear)"/>
<path d="M0.728978 7.84293C2.43478 4.98019 9.79115 10.2302 10.3242 11.423C10.4878 11.7891 10.2176 11.6602 9.79115 12.6144C9.25809 13.8072 3.92736 15 2.86123 15C1.79511 15 -1.40328 11.4214 0.728978 7.84293Z" fill="url(#paint2_linear)"/>
<path d="M11.2617 12C11.7974 10.6579 12.6369 9.7959 13.4046 9.31521C14.476 8.64434 15.0117 9.12716 15.0117 9.98657" stroke="black" stroke-width="0.2" stroke-linecap="round"/>
<path d="M11.2414 11.2071C11.6318 9.99837 12.3805 9.15005 13.0992 8.63348C14.1023 7.91253 14.6942 8.24154 14.7891 8.9657" stroke="black" stroke-width="0.2" stroke-linecap="round"/>
<path d="M12.7967 4.51066C12.2631 2.90586 9.06186 3.97597 8.52832 5.04584C8.52832 5.04584 8.98702 5.68193 9.12034 5.64062C9.25367 5.5993 11.5153 4.31885 11.7849 5.04584C12.0545 5.77283 11.5164 8.80184 11.2201 10.4931C11.9992 8.45338 13.1253 5.49905 12.7967 4.51066Z" fill="black"/>
<path d="M5.23908 0C7.94406 0.000380837 11.601 10.4348 11.0723 10.9565L10.7716 11.2531C10.7716 6.76738 7.09193 3.25986 6.10623 2.66802C5.73184 2.44323 4.54884 1.56239 4.34289 2.66802C4.10443 3.94824 3.74119 3.93111 2.98886 4.76226C2.35698 5.46034 2.96189 7.18455 3.32156 7.83285C2.94117 7.57945 2.67603 7.3912 2.58741 7.30428C2.05539 6.78247 0.998676 5.21749 2.05885 3.6522C3.11914 2.08674 2.58741 -0.000373231 5.23908 0Z" fill="black"/>
<path d="M2.86123 14.9999C1.79511 14.9999 -1.40328 11.4212 0.728978 7.84275C1.37104 6.76523 3.10358 6.27828 7.4288 8.96956C4.3416 7.64898 1.94481 7.39779 1.56211 9.15464C1.20242 10.8059 1.81464 15.4872 5.69707 14.4907C4.40985 14.9999 3.02127 14.9999 2.86123 14.9999Z" fill="black"/>
<ellipse cx="4.27637" cy="0.870898" rx="0.421875" ry="0.45" fill="white"/>
<path d="M6.28027 1.1834C6.28027 1.43193 6.09139 1.6334 5.8584 1.6334C5.6254 1.6334 5.43652 1.43193 5.43652 1.1834C5.43652 0.93487 5.6254 0.733398 5.8584 0.733398C6.09139 0.733398 6.28027 0.93487 6.28027 1.1834Z" fill="white"/>
<ellipse cx="0.667969" cy="10.801" rx="0.28125" ry="0.3" fill="white"/>
<ellipse cx="9.82031" cy="4.73799" rx="0.28125" ry="0.3" fill="white"/>
<ellipse cx="12.1172" cy="4.31367" rx="0.28125" ry="0.3" fill="white"/>
<ellipse cx="10.9727" cy="4.19648" rx="0.28125" ry="0.3" fill="white"/>
<ellipse cx="12.3984" cy="5.62666" rx="0.28125" ry="0.3" fill="white"/>
<ellipse cx="3.62002" cy="7.53541" rx="0.159082" ry="0.169688" fill="white"/>
<ellipse cx="2.52637" cy="7.53535" rx="0.28125" ry="0.3" fill="white"/>
<ellipse cx="1.41797" cy="8.10078" rx="0.28125" ry="0.3" fill="white"/>
<ellipse cx="2.66797" cy="14.4519" rx="0.28125" ry="0.3" fill="white"/>
<ellipse cx="1.69922" cy="13.3898" rx="0.28125" ry="0.3" fill="white"/>
<ellipse cx="0.761719" cy="9.30098" rx="0.28125" ry="0.3" fill="white"/>
<ellipse cx="2.26172" cy="5.83809" rx="0.28125" ry="0.3" fill="white"/>
<ellipse cx="2.63574" cy="4.03818" rx="0.375" ry="0.4" fill="white"/>
<ellipse cx="1.04297" cy="12.1012" rx="0.375" ry="0.4" fill="white"/>
<ellipse cx="3.46387" cy="2.57139" rx="0.375" ry="0.4" fill="white"/>
<ellipse cx="7.05371" cy="2.38096" rx="0.375" ry="0.4" fill="white"/>
<defs>
<radialGradient id="paint0_radial" cx="0" cy="0" r="1" gradientUnits="userSpaceOnUse" gradientTransform="translate(10.6918 10.6155) rotate(-92.6838) scale(9.24091 4.81443)">
<stop offset="0.192708" stop-color="#AB7321"/>
<stop offset="1" stop-color="#F6CB8A"/>
</radialGradient>
<linearGradient id="paint1_linear" x1="10.691" y1="12" x2="-0.0119495" y2="0.220904" gradientUnits="userSpaceOnUse">
<stop stop-color="#D98200"/>
<stop offset="1" stop-color="#FFE1B5"/>
</linearGradient>
<linearGradient id="paint2_linear" x1="10.3725" y1="12.5894" x2="-1.93824" y2="8.38032" gradientUnits="userSpaceOnUse">
<stop stop-color="#955900"/>
<stop offset="0.265625" stop-color="#CD8518"/>
<stop offset="1" stop-color="#FABC5F"/>
</linearGradient>
</defs>
</svg>
